<?xml version="1.0" encoding="UTF-8"?>
<svg id="Camada_2" data-name="Camada 2" xmlns="http://www.w3.org/2000/svg" viewBox="0 0 1282 597">
  <defs>
    <style>
      .cls-1 {
        letter-spacing: -.04em;
      }

      .cls-2 {
        stroke-width: 2px;
      }

      .cls-2, .cls-3, .cls-4 {
        stroke: #000;
        stroke-miterlimit: 10;
      }

      .cls-2, .cls-5, .cls-4 {
        font-family: Exotic350BT-Bold, 'Exotc350 Bd BT';
        font-size: 36px;
        font-weight: 700;
      }

      .cls-3 {
        fill: #39b54a;
        stroke-width: 5px;
      }

      .cls-6 {
        letter-spacing: -.1em;
      }

      .cls-4 {
        stroke-width: 3px;
      }
    </style>
  </defs>
  <g id="Camada_3" data-name="Camada 3">
    <rect class="cls-3" x="2.5" y="2.5" width="314" height="592"/>
    <rect class="cls-3" x="335.5" y="2.5" width="944" height="592"/>
    <text class="cls-2" transform="translate(71.15 97.04)"><tspan class="cls-6" x="0" y="0">T</tspan><tspan x="15.98" y="0">otal Supply</tspan></text>
    <text class="cls-2" transform="translate(115.01 188.3) rotate(-.22)"><tspan x="0" y="0">Burnt</tspan></text>
    <text class="cls-2" transform="translate(80.28 281.49) rotate(-.22)"><tspan x="0" y="0">Marketing</tspan></text>
    <text class="cls-2" transform="translate(115.15 364.04)"><tspan class="cls-1" x="0" y="0">V</tspan><tspan x="17.07" y="0">ested</tspan></text>
    <text class="cls-2" transform="translate(135.15 455.04)"><tspan class="cls-6" x="0" y="0">T</tspan><tspan x="15.98" y="0">ax</tspan></text>
    <text class="cls-5" transform="translate(135.15 534.04)"><tspan x="0" y="0">CA</tspan></text>
    <text class="cls-4" transform="translate(623.08 96)"><tspan x="0" y="0">1.000.000.000 $FROG</tspan></text>
    <text class="cls-4" transform="translate(673.08 187)"><tspan x="0" y="0">20% OF TOKENS</tspan></text>
    <text class="cls-4" transform="translate(781.08 279)"><tspan x="0" y="0">5%</tspan></text>
    <text class="cls-4" transform="translate(779.08 365)"><tspan x="0" y="0">10%</tspan></text>
    <text class="cls-4" transform="translate(783.08 455)"><tspan x="0" y="0">5/5</tspan></text>
    <text class="cls-4" transform="translate(787.08 535)"><tspan x="0" y="0">CA</tspan></text>
  </g>
</svg>